<?xml version="1.0" encoding="utf-8"?>
<!-- Generator: Adobe Illustrator 24.3.0, SVG Export Plug-In . SVG Version: 6.00 Build 0)  -->
<svg version="1.1" id="Ebene_1" xmlns="http://www.w3.org/2000/svg" xmlns:xlink="http://www.w3.org/1999/xlink" x="0px" y="0px"
	 viewBox="0 0 226.77 226.77" style="enable-background:new 0 0 226.77 226.77;" xml:space="preserve">
<style type="text/css">
	.st0{fill:#004D9D;}
</style>
<path class="st0" d="M113.39,6.87C54.35,6.87,6.5,54.73,6.5,113.76s47.86,106.89,106.89,106.89s106.89-47.86,106.89-106.89
	S172.42,6.87,113.39,6.87z M146.31,69.82c0,2.41-0.98,3.35-3.4,3.37c-4.37,0.05-8.73,0.08-13.1,0.19c-0.88,0.02-1.77,0.25-2.62,0.52
	c-2.9,0.92-4.12,3.19-4.2,5.97c-0.15,4.96-0.04,9.93-0.04,15.02c0.4,0,0.78,0,1.16,0c5.94,0,11.89,0,17.83,0
	c2.6,0,3.55,0.96,3.55,3.56c0,6.65,0,13.31-0.01,19.96c0,2.44-0.92,3.36-3.38,3.37c-5.94,0.01-11.89,0-17.83,0c-0.42,0-0.84,0-1.4,0
	c0,0.56,0,1.01,0,1.47c0,17.28,0,34.56,0,51.84c0,2.8-0.91,3.71-3.73,3.71c-6.87,0-13.75,0-20.62,0c-2.33,0-3.33-0.99-3.33-3.33
	c0-17.39,0-34.77,0-52.16c0-0.46,0-0.92,0-1.52c-0.51,0-0.93,0-1.35,0c-4.98,0-9.95,0-14.93,0c-2.56,0-3.48-0.93-3.48-3.5
	c0-6.62,0-13.24,0-19.86c0-2.57,0.98-3.53,3.6-3.53c4.94,0,9.88,0,14.82,0c0.39,0,0.78,0,1.34,0c0-0.43,0-0.81,0-1.19
	c0.01-4.97-0.06-9.95,0.05-14.92c0.12-5.91,1.41-11.55,4.42-16.71c4.08-7,10.2-11.24,18-13.18c3.36-0.84,6.77-1.09,10.22-1.06
	c5.01,0.03,10.02,0.01,15.04,0.01c2.37,0,3.38,1.01,3.39,3.4C146.31,57.44,146.31,63.63,146.31,69.82z"/>
</svg>
