<?xml version="1.0" encoding="utf-8"?>
<!-- Generator: Adobe Illustrator 24.3.0, SVG Export Plug-In . SVG Version: 6.00 Build 0)  -->
<svg version="1.1" id="Ebene_1" xmlns="http://www.w3.org/2000/svg" xmlns:xlink="http://www.w3.org/1999/xlink" x="0px" y="0px"
	 viewBox="0 0 226.77 226.77" style="enable-background:new 0 0 226.77 226.77;" xml:space="preserve">
<style type="text/css">
	.st0{fill:#004D9D;}
</style>
<g>
	<path class="st0" d="M162.53,84.52c-1.34-11.51-11.18-20.4-22.83-20.44c-17.53-0.07-35.06-0.03-52.59-0.01
		c-2.8,0-5.53,0.51-8.14,1.54c-9.13,3.6-14.89,12.04-14.91,21.86c-0.02,8.64,0,17.28,0,25.92c0,8.53-0.01,17.06,0.01,25.59
		c0,1.14,0.04,2.28,0.19,3.41c1.61,11.83,11.33,20.32,23.27,20.33c17.25,0.01,34.5,0.01,51.75-0.01c1.46,0,2.95-0.12,4.39-0.4
		c11.3-2.2,19.03-11.6,19.04-23.12c0.01-17.2,0.01-34.39,0-51.59C162.7,86.57,162.65,85.54,162.53,84.52z M113.38,144.33
		c-17.03-0.01-30.91-13.88-30.93-30.91c-0.02-17.05,13.9-30.99,30.95-30.98c17.03,0.01,30.91,13.88,30.93,30.91
		C144.35,130.4,130.43,144.34,113.38,144.33z M145.51,87.26c-3.35-0.01-6.01-2.68-6-6.04c0.01-3.35,2.69-6.01,6.04-6
		c3.34,0.01,6,2.69,6,6.05C151.56,84.6,148.88,87.26,145.51,87.26z"/>
	<path class="st0" d="M113.39,6.87C54.56,6.87,6.87,54.56,6.87,113.39S54.56,219.9,113.39,219.9c58.83,0,106.52-47.69,106.52-106.52
		S172.21,6.87,113.39,6.87z M144.92,170.9c-1.85,0.3-3.75,0.47-5.63,0.47c-17.31,0.03-34.61,0.02-51.92,0.02
		c-15.76,0-29.1-11.35-31.59-26.94c-0.25-1.58-0.37-3.21-0.38-4.81c-0.03-17.5-0.02-35-0.01-52.5c0.01-15.4,11.3-28.74,26.51-31.27
		c1.8-0.3,3.64-0.45,5.47-0.46c8.67-0.05,17.33-0.02,26-0.02c8.64,0,17.28,0,25.92,0c15.49,0,28.57,10.72,31.53,25.91
		c0.36,1.87,0.55,3.8,0.55,5.71c0.04,17.58,0.04,35.17,0.02,52.75C171.37,155.02,159.98,168.43,144.92,170.9z"/>
	<path class="st0" d="M113.4,91.16c-12.3-0.01-22.25,9.95-22.24,22.25c0.01,12.27,9.94,22.19,22.21,22.2
		c12.3,0.01,22.25-9.95,22.24-22.25C135.6,101.09,125.67,91.18,113.4,91.16z"/>
</g>
</svg>
